<svg xmlns="http://www.w3.org/2000/svg" viewBox="0 0 4540.7193 1083.5393"><defs><style>.a{fill:#485461;}.b{fill:#673ab7;}</style></defs><title>logo</title><path class="a" d="M630.2075,521.1935a9.979,9.979,0,0,0-9.935,9.6092c-.8968,24.1967-2.9631,86.983-4.988,117.93-3.7728,57.66-26.9778,106.358-72.8165,142.3916-30.3452,23.8544-65.1261,36.7041-104.5652,36.5243-81.7823-.373-252.0936-.5927-290.91-.6391a7.9929,7.9929,0,0,1-7.99-7.9916C139,752.2641,138.4225,672.6748,139,607c.3179-36.1467,13.0432-72.2054,28.6676-104.4864,23.1923-47.917,63.2226-76.2015,113.9709-89.988,19.7248-5.3586,110.9944-8.01,136.3215-8.1082,9.4673-.0369,11.3913,1.5953,11.441,10.79q.2187,40.4909.0352,80.9833c-.0428,8.6411-2.6844,11.2142-11.5306,11.3159-18.6582.2144-88.4718,3.0866-104.6322,5.2045A69.5518,69.5518,0,0,0,265,543c-8.5732,12.974-9.06,13.007-16,27-1.6951,3.4175-5.39,21.3065-5.4947,25.2442-.741,27.9766-1.2823,97.1781-1.45,120.746a7.9861,7.9861,0,0,0,7.9484,8.05c30.9836.1514,142.9681.6566,176.1594.2275,33.264-.43,58.26-15.0023,75.2762-44.3059,13.5116-23.268,19.2634-47.677,18.9149-74.4118-.6862-52.6429-.426-159.95-.4051-160.9494.0562-2.685.09-4.8934.1093-6.7054A7.9683,7.9683,0,0,1,528.0257,430c62.9754.0035,475.4351.0252,480.9743,0,15.2036-.07,28.9644-10.0167,32-25,.7524-3.7138.9524-15.2272.998-23.1269a7.976,7.976,0,0,1,7.9341-7.9282c22.2145-.1276,60.06-.163,84.1269-.0082a7.9937,7.9937,0,0,1,7.9411,8V386q0,.435.0012.8882C1142.1867,458.7305,1084.8191,519.1611,1013,521,1011.808,521.03,689.3507,520.9323,630.2075,521.1935Z" transform="translate(-138.7433 -79.6968)"/><path class="a" d="M953.4208,682.2036a7.9968,7.9968,0,0,0,5.2016,13.9573c25.2929.405,68.1155.6467,92.2676.2413,25.9135-.4349,47.1065-11.4862,62.4313-32.3955,13.6506-18.625,22.4213-39.0375,21.46-63.035-.7544-18.8426-.7911-50.2573-.7849-72.0168a7.9781,7.9781,0,0,1,7.9571-7.9795c17.7393-.0513,60.7311-.1557,83.0715-.0379a7.9627,7.9627,0,0,1,7.9239,8.0112c-.11,19.3911-.3068,69.1784.4145,91.6843,1.3645,42.581-15.6534,77.4074-43.4558,108.2673-27.39,30.4025-62.3732,47.0893-101.0638,57.2642-5.0478,1.3274-167.8082,1.3576-243.7845,1.1287-7.8054-.0235-13.8362,1.94-19.7683,7.1992-30.9776,27.4645-96.24,84.5912-115.7,101.6169a7.99,7.99,0,0,1-10.8769-.3216c-12.3105-12.139-43.0295-42.4288-58.6276-57.796a7.988,7.988,0,0,1,.2957-11.6649c40.7741-36.2427,265.2232-235.7538,331.0454-294.3634a7.9864,7.9864,0,0,1,10.9064.2606c11.1218,10.8908,43.8043,42.5807,60.5022,58.79a7.9845,7.9845,0,0,1-.2474,11.6966C1024.2607,619.0368,971.7822,665.7884,953.4208,682.2036Z" transform="translate(-138.7433 -79.6968)"/><path class="a" d="M1526.6,812.4426a14.9944,14.9944,0,0,1,.4844-21.4626c44.2877-41.253,208.6358-186.4134,214.7295-192.6245,9.7131-9.9,15.1491-21.7835,15.1987-35.87.082-23.3052-14.6041-37.91-38.0121-38.4855-7.9742-.196-52.3782-.1072-76.0806-.044a14.994,14.994,0,0,0-14.9528,14.9878c-.0311,34.875.1223,95.4219-.05,98.8414C1627.3533,648.9908,1624.92,650.66,1614,651c-.2461.0077-48.001.004-73.05.0016a14.9831,14.9831,0,0,1-14.9855-14.9493c-.1465-57.1245-.4546-135.2017-.3676-190.1065a14.9745,14.9745,0,0,1,14.97-14.9554c36.0758-.0244,128.3238-.0947,174.1629-.2,37.25-.0852,70.5451,11.1367,97.9475,36.3169,36.5282,33.5663,51.799,75.6986,42.1911,124.6484-5.8894,30.0048-22.0493,55.7949-43.4188,77.5642-16.3134,16.6185-174.0426,154.9115-216.7669,192.3235a14.9858,14.9858,0,0,1-20.555-.7585C1562.0561,848.6341,1539.7325,825.8523,1526.6,812.4426Z" transform="translate(-138.7433 -79.6968)"/><path class="a" d="M1157.65,784.0737a7.9934,7.9934,0,0,1,.4545-11.4821c38.2419-34.2108,216.136-193.6742,220.5344-198.4628,9.9038-10.7824,14.9511-23.4311,14.06-38.2912-1.1085-18.4808-10.9928-30.5333-29.2342-34.1846a94.5216,94.5216,0,0,0-19.8626-1.326c-23.2726.3555-142.2681,1.0834-174.5261,1.5a7.988,7.988,0,0,1-8.0961-7.9725c-.0383-16.1025-.1093-58.6466-.0313-78.85a7.9931,7.9931,0,0,1,8.0319-7.9668c34.7475.1684,171.9334.8532,190.1713,1.248,66.1029,1.4314,120.9776,49.2988,132.6142,114.4823,5.3853,30.1663-1.6246,57.486-15.6994,83.7147-10.5034,19.5735-24.3979,36.5125-40.4065,51.8258-45.4418,43.4683-180.6282,159.6522-209.9908,184.8333a7.9885,7.9885,0,0,1-10.9036-.4684C1198.2474,825.8521,1168.2477,795.17,1157.65,784.0737Z" transform="translate(-138.7433 -79.6968)"/><path class="a" d="M1560.5632,708.9345a7.9876,7.9876,0,0,1-.7282,11.3863c-35.2163,30.3937-210.4932,181.6633-243.02,209.6722a7.9877,7.9877,0,0,1-11.0566-.6042c-12.593-13.4833-44.38-47.5348-56.1984-60.3563a7.9919,7.9919,0,0,1,.6236-11.44c35.155-30.704,208.1948-181.15,242.9214-211.4374a7.988,7.988,0,0,1,11.17.65C1517.1555,660.9831,1549.9375,697.0827,1560.5632,708.9345Z" transform="translate(-138.7433 -79.6968)"/><path class="a" d="M746.2567,736.3032h177a46,46,0,0,1,46,46v.0006a45.9994,45.9994,0,0,1-45.9994,45.9994H746.2567a46,46,0,0,1-46-46v0A46,46,0,0,1,746.2567,736.3032Z"/><path class="a" d="M2639.2567,790.3032h169a50,50,0,0,1,50,50v0a44,44,0,0,1-44,44h-181a44,44,0,0,1-44-44v0a50,50,0,0,1,50-50Z"/><rect class="a" x="787.2567" y="842.3032" width="93" height="93" rx="46.5"/><rect class="a" x="1925.2567" y="495.3032" width="93" height="93" rx="46.5"/><path class="a" d="M2908.3132,625.0968h67.9414a14.9964,14.9964,0,0,1,14.9982,14.7689c.2411,16.0147.5194,40.8827.6325,54.0538.0905,10.54,2.2231,20.54,9.1113,28.9489,7.7175,9.421,17.4543,13.9954,29.8647,12.6385,12.7051-1.3891,23.6345-5.5939,32.1612-15.8433,26.2046-31.4983,130.77-148.8672,156.2607-176.57,26.1726-28.4437,59.7822-38.6559,96.9106-40.5577,23.7227-1.2151,46.5049,2.6549,67.785,13.6676C3411.9321,530.67,3438.8975,551.8006,3450,581c7.0179,18.4577,7.2371,172.584,7.0609,231.0662a14.981,14.981,0,0,1-14.9829,14.9376c-40.2321.009-150.5706.0313-190.1148.0093a14.9941,14.9941,0,0,1-14.9882-14.9739c-.0287-19.1568-.0662-51.921-.019-69.0826a14.9929,14.9929,0,0,1,15.0016-14.9537c27.1178.0087,83.1616.0212,100.1074.005a7.96,7.96,0,0,0,7.9541-7.9466c.0433-17.8327.15-61.0113.2121-80.3212.0537-16.63-6.8464-28.8089-22.3547-35.7192-15.7-6.9957-30.3477-6.0836-43.9378,5.1394-19.6428,16.2209-131.0759,151.1607-176.2969,193.551-5.6418,5.2887-33.7229,23.391-56.5556,24.5646a183.4147,183.4147,0,0,1-41.79-2.3911c-22.719-4.0126-43.3535-12.7359-63.374-23.5787-16.8379-9.119-10.7671-8.83-26.6929-.2569-17.9558,9.6653-36.4358,17.643-56.3654,22.7a125.4392,125.4392,0,0,1-30.5122,3.57c-91.6487.6151-456.91.6706-547.8909.0006-11.5447-.085-13.0759-1.9479-12.8662-13.6088q.0218-1.211.0364-2.4226a16.1644,16.1644,0,0,0-24.032-14.3438h0c-11.3179,6.314-22.65,12.7845-34.555,17.8228a162.8328,162.8328,0,0,1-66.0376,12.8146c-60.3849-.5453-170.7489-.618-234.9834-.6089a49.9918,49.9918,0,0,1-50-49.97c-.0312-53.5791-.1657-112.6519.2224-160.9288.3161-39.3036,9.3789-76.5547,28.795-111.044,30.25-53.7344,77.2566-82.1437,137.2741-90.5479,6.7207-.941,38.2862-1.653,67.9454-2.0688,14.0755-.1973,26.8639-.0463,36.0809.1518a14.9882,14.9882,0,0,1,14.6675,14.9917c-.0036,23.1249-.0308,66.5488-.0231,75.3688a14.9916,14.9916,0,0,1-15.0779,15.0081c-23.7783-.132-53.927-.3685-72.1809-.0057a162.2381,162.2381,0,0,0-30.6677,3.6865c-23.856,5.1266-41.3953,19.0714-53.1433,40.4167a128.0458,128.0458,0,0,0-15.9927,56.2962c-1.4239,31.6542-1.5094,75.1216-1.8368,108.6079a7.9821,7.9821,0,0,0,7.9841,8.0667c29.3278.002,131.1244-.0553,180.7135-.9119,32.1243-.5548,56.3968-16.1,72.2669-44.3265a134.3591,134.3591,0,0,0,17.2932-65.0176c.1607-12.4561.46-78.0113.5915-107.8866a14.9893,14.9893,0,0,1,14.9324-14.9259c19.0717-.0784,51.9655-.1923,71.1105-.14a14.9926,14.9926,0,0,1,14.9534,15.08c-.1861,33.74-.826,114.5546-2.74,132.6792-2.487,23.5558-7.6606,46.6473-17.3652,68.5268-5.9946,13.5146-3.938,16.4231,10.9573,16.4959,12.3305.06,24.6621-.0445,36.9929-.1352,11.8413-.0871,13.0764-1.4062,13.2095-13.2548.405-36.1472,11.0405-69.1788,32.9328-97.7711,31.8233-41.5623,74.0283-64.107,126.9927-64.9141,9.9966-.1522,19.9993.0663,29.9946-.1179,10.7154-.1974,13.625-3.0394,13.9-13.6739.1889-7.303.1208-14.6255-.178-21.925-.3977-9.715,1.9272-11.9668,11.7961-9.7141,9.4117,2.1483,18.815,4.496,27.9993,7.4488,50.4163,16.209,96.2915,40.6447,135.8408,76.2115a218.5742,218.5742,0,0,1,46.52,58.3719c4.5579,8.4045,7.634,17.7009,10.627,26.8391,2.5844,7.8909,4.01,16.1559,6.1174,24.2112a59.8145,59.8145,0,0,0,3.4807,10.3868c5.675,12.0387,17.0386,19.9116,26.9956,19.0277,12.2231-1.085,24.3408-11.5051,27.3-24.5136a126.59,126.59,0,0,0,3.117-23.7205c.3724-11.1742.6657-32.81.8914-47.472A14.9957,14.9957,0,0,1,2908.3132,625.0968Zm-257.6,95.6645c1.3311,10.3613,5.8489,13.6439,16.1028,13.7438,11.3284.11,22.6616.13,33.9876-.0843,18.4218-.3481,30.3625-12.8665,29.7758-31.365a134.6629,134.6629,0,0,0-2.0468-16.8236c-2.0948-13.13-10.0291-21.3978-23.1126-22.1707-14.6116-.8633-29.3076-.6893-43.9553-.3948-7.7725.1563-10.7183,3.3282-11.2251,11.21C2649.7922,681.8444,2649.6633,712.5867,2650.7136,720.7613Zm-83.7715-44.9906c-.4853-8.5424-3.0869-11.8657-11.29-12.0358-13.9578-.29-27.9685-.4522-41.8865.4352-13.781.8788-22.34,9.8821-23.844,23.805a143.8173,143.8173,0,0,0-.396,17.9393c.33,18.5785,8.6021,27.4251,27.3806,28.4521,10.9458.5986,21.9573.414,32.9248.094,11.0669-.323,15.64-4.5845,16.5711-15.8009C2567.033,711.0659,2566.98,676.4343,2566.9421,675.7707Z" transform="translate(-138.7433 -79.6968)"/><path class="b" d="M4138.5981,79.6969c307.064,1.4347,541.32,249.158,540.8638,542.6689-.4663,299.7824-242.9809,541.2271-542.501,540.87-292.2866-.3486-540.8247-234.521-540.988-542.4956C3595.814,321.1833,3838.5632,79.546,4138.5981,79.6969Zm-.5229,45.3077c-278.96,1.1435-496.5161,225.0351-496.3318,496.7978.1853,273.2946,220.3291,495.73,495.843,496.0985,270.34.3614,496.6743-216.3906,496.8731-496.11C4634.6567,344.5233,4412.0122,126.0051,4138.0752,125.0046Z" transform="translate(-138.7433 -79.6968)"/><path class="b" d="M4127.9851,478.2735a6.9991,6.9991,0,0,1-.3862,11.4722q-.7265.4715-1.4519.9319c-38.4131,24.3638-74.4151,51.6819-104.815,85.8159-24.66,27.6886-44.362,58.3873-54.415,94.3891-13.7971,49.41-7.2835,96.96,14.8711,142.7213a274.3536,274.3536,0,0,0,25.43,42.3356,189.9386,189.9386,0,0,0,47.383,45.27c58.1343,39.1876,180.8,120.936,212.7471,142.2937a4.8987,4.8987,0,0,1-1.2609,8.7638l-.081.0234c-53.65,15.439-108.23,21.3838-163.9912,16.8333q-137.9523-11.2574-245.9629-97.5566A444.8442,444.8442,0,0,1,3761.51,867.8579c-3.5606-5.401-2.972-9.3088-.1478-14.4683,22.7029-41.4753,132.87-242.3417,165.6685-301.0682,14.84-26.572,31.8623-51.7079,54.8154-72.04a167.6041,167.6041,0,0,1,29.1729-20.7757c22.7207-12.6862,46.948-13.91,71.5217-5.8608C4099.031,459.0458,4113.7386,467.6653,4127.9851,478.2735Z" transform="translate(-138.7433 -79.6968)"/><path class="b" d="M4581.7522,554.5938a6.9981,6.9981,0,0,1-10.87,6.7443c-55.3733-37.6448-274.326-186.54-385.241-261.8978-32.4512-22.0476-66.8882-39.9271-105.3691-49.1135-62.8965-15.0151-120.29-2.7112-172.2818,35.1667a279.4962,279.4962,0,0,0-78.633,88.1248c-34.2356,59.8524-98.0891,171.588-126,220.3334-3.6722,6.4133-13.4557,3.4945-13.0648-3.8854,10.0553-189.8376,157.3288-386.2825,392.912-414.3481C4344.0553,144.6425,4550.0771,331.726,4581.7522,554.5938Z" transform="translate(-138.7433 -79.6968)"/><path class="b" d="M4353.9364,652.0129q-58.6253,84.57-116.2492,167.6977a6.99,6.99,0,0,1-8.8885,2.2668c-12.4053-6.2331-42.173-22.64-55.9217-34.938a130.2362,130.2362,0,0,1-18.2066-19.8107c-14.1167-19.2589-15.9687-40.251-4.3433-61.0571a162.7792,162.7792,0,0,1,23.1841-31.0919c16.6426-17.8407,35.9732-32.7411,56.2461-46.2851,17.835-11.9153,37.2735-19.2236,59.145-18.2478,26.4,1.1777,46.8293,13.4221,64.489,32.7865A6.99,6.99,0,0,1,4353.9364,652.0129Z" transform="translate(-138.7433 -79.6968)"/><path class="b" d="M4584.0786,658.2151c-9.0519,153.5856-107.1844,300.0348-250.6563,367.5951a7.007,7.007,0,0,1-8.7688-10.289c82.8511-121.4855,164.7723-241.6079,246.6455-361.66A7.0054,7.0054,0,0,1,4584.0786,658.2151Z" transform="translate(-138.7433 -79.6968)"/></svg>